<svg xmlns="http://www.w3.org/2000/svg" width="171" height="33" viewBox="0 0 171 33">
    <g fill="none" fill-rule="evenodd">
        <path fill="#326D6C" d="M15.357 0L14 .763l.541 2.328.816-.459 6.15 3.459 6.152 3.458V23.385l-1.139.64L27.691 26 30 24.702V8.234l-7.322-4.117L15.357 0zm1.27 15.754l8.492 4.775v-9.552l-1.27-.713-3.611-2.03-3.612-2.03v9.55z"/>
        <path fill="#BAD7D0" d="M15 0L7.5 4.167 0 8.333V25l1.963-.346.435-.987V9.665L8.7 6.164 15 2.664V0zm-5 8.332l-3.7 2.056-1.3.722v9.666l8.699-4.832V6.278L10 8.332z"/>
        <path fill="#6DAA9C" d="M23.7 22.763L20 24.788l-3.699 2.025-1.3.711-1.302-.71L10 24.786l-3.7-2.024L15 18l8.7 4.763zM13.698 29.66l-5-2.736-6.301-3.45-1.018.558-1.38.755 7.5 4.106L15 33l7.5-4.106 7.5-4.106-2.398-1.313-6.301 3.45-5 2.737-1.3.711-1.302-.712z"/>
        <path fill="#FFF" d="M170.704 13.885l-2.436 2.332c-.985-.938-1.883-1.407-2.692-1.407-.438 0-.783.089-1.035.267-.252.178-.375.399-.375.662 0 .2.08.384.237.553.158.169.552.399 1.178.694l1.44.685c1.519.709 2.564 1.436 3.13 2.172.568.741.849 1.604.849 2.599 0 1.323-.513 2.43-1.538 3.312-1.026.886-2.402 1.327-4.128 1.327-2.287 0-4.121-.849-5.487-2.551l2.43-2.515a5.545 5.545 0 0 0 1.633 1.243c.621.314 1.173.474 1.657.474.517 0 .941-.118 1.257-.357.32-.239.478-.511.478-.82 0-.577-.572-1.14-1.72-1.684l-1.327-.634c-2.544-1.215-3.816-2.735-3.816-4.56 0-1.177.478-2.185 1.435-3.02.956-.836 2.179-1.253 3.668-1.253 1.02 0 1.977.216 2.88.643a6.325 6.325 0 0 1 2.282 1.838zm-21.103 1.037c-1.227 0-2.248.404-3.061 1.21-.814.812-1.223 1.844-1.223 3.106 0 1.295.404 2.345 1.208 3.148.803.802 1.824 1.205 3.062 1.205 1.232 0 2.258-.408 3.081-1.22.819-.811 1.228-1.857 1.228-3.133 0-1.28-.405-2.318-1.208-3.12-.804-.797-1.834-1.196-3.087-1.196zm-.059-3.518c1.484 0 2.88.352 4.186 1.055 1.312.704 2.327 1.656 3.062 2.862a7.385 7.385 0 0 1 1.1 3.907c0 1.408-.37 2.721-1.105 3.946a7.808 7.808 0 0 1-3.017 2.87c-1.277.69-2.678 1.037-4.211 1.037-2.258 0-4.186-.76-5.779-2.28-1.597-1.524-2.396-3.372-2.396-5.544 0-2.332.902-4.274 2.707-5.826 1.582-1.351 3.397-2.027 5.453-2.027zm-14.895 15.311h3.935V6h-3.935v20.715zm-17.34-14.945h3.993v7.186c0 1.398.103 2.37.306 2.913.202.545.527.967.976 1.272.448.3 1.006.45 1.661.45.656 0 1.218-.15 1.677-.446.458-.295.798-.731 1.02-1.308.163-.432.247-1.351.247-2.759V11.77h3.935v6.323c0 2.608-.217 4.391-.651 5.353-.528 1.172-1.312 2.068-2.343 2.697-1.03.624-2.341.938-3.929.938-1.726 0-3.116-.366-4.181-1.098-1.065-.731-1.815-1.749-2.248-3.058-.31-.905-.464-2.552-.464-4.94V11.77zm-12.051 3.068c-1.223 0-2.238.408-3.043 1.229-.808.816-1.212 1.867-1.212 3.148 0 1.29.409 2.35 1.232 3.184.824.831 1.834 1.249 3.038 1.249 1.237 0 2.268-.409 3.081-1.23.819-.816 1.228-1.89 1.228-3.218 0-1.299-.41-2.35-1.228-3.157-.813-.802-1.849-1.205-3.096-1.205zM109.402 6h3.935v20.715h-3.935v-1.59c-.769.695-1.543 1.192-2.317 1.496a6.825 6.825 0 0 1-2.52.46c-2.036 0-3.791-.746-5.275-2.242-1.484-1.492-2.224-3.35-2.224-5.568 0-2.304.72-4.19 2.155-5.662 1.435-1.468 3.175-2.205 5.226-2.205.947 0 1.83.17 2.658.502.828.338 1.592.844 2.297 1.515V6zm-23.114 8.922c-1.228 0-2.248.404-3.062 1.21-.813.812-1.223 1.844-1.223 3.106 0 1.295.404 2.345 1.208 3.148.804.802 1.825 1.205 3.062 1.205 1.233 0 2.258-.408 3.082-1.22.818-.811 1.227-1.857 1.227-3.133 0-1.28-.404-2.318-1.207-3.12-.804-.797-1.835-1.196-3.087-1.196zm-.06-3.518c1.485 0 2.88.352 4.187 1.055 1.311.704 2.327 1.656 3.062 2.862a7.388 7.388 0 0 1 1.1 3.907c0 1.408-.37 2.721-1.105 3.946a7.805 7.805 0 0 1-3.018 2.87c-1.277.69-2.677 1.037-4.21 1.037-2.259 0-4.187-.76-5.78-2.28-1.597-1.524-2.395-3.372-2.395-5.544 0-2.332.902-4.274 2.706-5.826 1.583-1.351 3.398-2.027 5.454-2.027zM51 11.77h3.935v1.745c.675-.708 1.425-1.238 2.253-1.586.823-.352 1.725-.525 2.702-.525.98 0 1.873.23 2.662.69.794.46 1.43 1.135 1.913 2.017.626-.882 1.396-1.558 2.308-2.017a6.567 6.567 0 0 1 2.993-.69c1.119 0 2.105.248 2.953.741.853.493 1.46 1.14 1.834 1.933.37.797.557 2.092.557 3.884v8.753h-3.934v-7.552c0-1.689-.222-2.834-.67-3.43-.45-.595-1.125-.895-2.018-.895-.685 0-1.296.183-1.834.549-.542.361-.946.867-1.207 1.51-.262.643-.395 1.675-.395 3.1v6.718h-3.935v-7.21c0-1.332-.103-2.298-.315-2.894-.207-.6-.523-1.041-.937-1.337-.419-.29-.927-.436-1.519-.436a3.1 3.1 0 0 0-1.8.553c-.541.371-.941.887-1.212 1.553-.266.666-.4 1.717-.4 3.148v6.623H51V11.77z"/>
    </g>
</svg>
